<?xml version="1.0" encoding="utf-8"?>
<!DOCTYPE svg PUBLIC "-//W3C//DTD SVG 1.0//EN" "http://www.w3.org/TR/2001/REC-SVG-20010904/DTD/svg10.dtd">
<svg version="1.0" xmlns="http://www.w3.org/2000/svg" width="1676px" height="1350px" viewBox="0 0 1676 1350" preserveAspectRatio="xMidYMid meet">
 <g fill="#fcdb39">
  <path d="M0 675 l0 -675 838 0 838 0 0 675 0 675 -838 0 -838 0 0 -675z m1455.8 464.1 c-1.7 -4.5 -86.6 -156.5 -87.6 -156.8 -2.9 -1.2 -2.1 1.3 5.2 14.3 5.8 10.4 7.6 14.6 7.6 17.5 l0 3.9 -91.3 0 -91.3 0 -7.3 -18 c-6 -14.7 -7.7 -18 -9.3 -18 -2.4 0 -2.3 0.2 4.3 15.9 3.3 7.8 4.9 12.9 4.9 15.8 l0 4.3 -93.9 0 -93.8 0 -3.2 -14.7 c-1.7 -8.2 -3.4 -16.3 -3.7 -18 -0.5 -2.6 -1.2 -3.3 -2.9 -3.3 l-2.3 0 2.9 13.7 c1.6 7.5 2.9 15.6 2.9 18 l0 4.3 -83 0 -83 0 0 -3.7 -0.1 -3.8 -3 3.8 -3.1 3.7 -7.9 0 -7.9 0 0 -18.1 0 -18 -2.8 0.3 -2.7 0.3 -0.3 17.8 -0.2 17.7 -7.9 0 -7.9 0 -52.3 -69.7 c-43.9 -58.5 -52.4 -70.4 -52.7 -73.5 l-0.4 -3.8 3.9 0 c3.8 0 4 0.2 23.3 23.4 l19.5 23.5 10.8 0 c10.1 0.1 10.7 0 10.7 -2 0 -1.2 -8.6 -12.2 -21 -26.9 -18 -21.4 -21 -25.4 -21 -28.2 0 -2.8 3.1 -6.9 21 -28.3 11.5 -13.7 21 -25.8 21 -26.7 0 -1.6 -1.2 -1.8 -10.8 -1.8 l-10.9 0 -19.1 23 -19.2 23 -14.5 0 -14.5 0 0 -23 0 -23 -10.5 0 -10.5 0 0 4.5 c0 4.4 -0.1 4.5 -3.3 4.5 -3 0 -4 -1.1 -16 -17 -10.6 -14.2 -12.7 -17.6 -12.7 -20.5 l0 -3.5 24 0 24 0 0 3.3 c0 2.9 -1.3 9.5 -2.6 14 -0.4 1.3 0 1.7 1.8 1.7 2.2 0 2.5 -0.8 4.3 -9.2 l2 -9.3 71.3 -0.3 71.2 -0.2 0 11.4 0 11.5 -6.7 0.3 -6.8 0.3 0 10 0 10 9.9 0.3 9.8 0.3 -0.7 -22.1 -0.8 -22 71 0 70.9 0 1.9 9.3 c1.8 8.1 2.3 9.2 4.3 9.5 2.5 0.4 2.5 0.4 0.1 -8.8 -0.5 -1.9 -0.9 -5 -0.9 -6.7 l0 -3.3 24.5 0 24.5 0 0 3.3 0.1 3.2 2.7 -3.3 2.7 -3.2 44.9 0.2 44.9 0.3 3.7 9 c2.9 6.9 4.3 9.1 5.9 9.3 2.1 0.3 2.1 0.3 -0.4 -5.4 -1.4 -3.1 -2.5 -7.4 -2.5 -9.5 l0 -3.9 75.8 0 75.7 0 5 9.1 c4.6 8.4 6.7 11 8.1 9.6 0.3 -0.3 -11.2 -21.8 -25.5 -47.8 l-26.1 -47.2 0 -213.5 0 -213.5 -9.7 0.7 c-49.5 3.5 -89.7 16.7 -109.2 35.8 -2.4 2.4 -10.3 12.2 -17.6 21.8 -26.9 35.7 -34.8 39.8 -82.5 42.6 -10.6 0.6 -22.8 2.7 -32.5 5.5 -2.3 0.7 -5.7 0.9 -7.7 0.5 -3.4 -0.6 -4.1 -1.3 -8.3 -9.4 -9.5 -18.1 -28 -40.3 -45 -54.2 -32.3 -26.4 -75.2 -42 -115.4 -42 -24 0 -56.1 7.9 -79.1 19.5 -35.8 18 -66.4 49 -83.9 84.8 -13.3 27.5 -20.5 62.4 -18.1 88.7 0.5 5.8 0.9 12.5 1 14.9 l0 4.3 -6.2 -0.4 c-12.3 -0.9 -33.5 -12.3 -48.6 -26.3 -8.9 -8.3 -18.1 -19.1 -35.4 -42.1 -22.1 -29.2 -34.5 -41.9 -53.6 -55.2 -20.5 -14.3 -44.4 -22.2 -66.9 -22.2 l-9.3 0 0 179.7 0 179.7 -26 47.3 c-14.3 26.1 -26 47.6 -26 47.9 0 0.2 0.8 0.4 1.8 0.4 1.1 0 3.3 -3.1 6.7 -9.5 l5 -9.5 75.8 0 75.7 0 0 3.9 c0 2.1 -1.1 6.4 -2.5 9.5 l-2.5 5.6 2.3 0 c1.8 0 2.8 -1.5 6.1 -9.5 l3.8 -9.5 44.8 0 44.7 0 19.2 25.4 19.1 25.5 0 47.6 0 47.6 10.3 -0.3 10.2 -0.3 0.3 -23.2 0.2 -23.3 7.5 0 7.5 0 52.5 70 c46.1 61.4 52.5 70.4 52.5 73.5 l0 3.5 -84 0 -84 0 0 -3 c0 -1.6 1.4 -9.3 3 -17 1.7 -7.7 3 -14.5 3 -15 0 -0.6 -0.9 -1 -1.9 -1 -1.5 0 -2.2 1.1 -2.9 4.8 -0.6 2.6 -2.3 10.7 -3.8 18 l-2.7 13.2 -94.4 0 -94.3 0 0 -3.5 c0 -2 2.6 -9.8 6 -18.1 5.5 -13.5 5.8 -14.5 3.8 -14.2 -1.8 0.2 -3.5 3.4 -9.4 17.8 l-7.2 17.5 -91.1 0.3 -91.1 0.2 0 -3.4 c0 -2.3 2.3 -7.6 7.6 -17.1 7.1 -12.9 8.3 -16.2 4.8 -14 -1.1 0.8 -33.9 59.9 -82.1 148.3 l-4.5 8.2 650.2 0 c358.8 0 650 -0.4 649.8 -0.9z m-1151.8 -240.6 l0 -19.5 36.5 0 36.5 0 0 19.5 0 19.5 10.5 0 10.6 0 -0.3 -48.2 c-0.3 -47.7 -0.3 -48.4 -2.5 -52.4 -2.8 -5.2 -9.5 -11.1 -14.2 -12.4 -2.1 -0.6 -19.4 -1 -41.1 -1 -41.7 0 -41.9 0.1 -48.8 7 -7 6.9 -6.7 4.3 -7 58.3 l-0.3 48.7 10.1 0 10 0 0 -19.5z m156 -16 l0 -35.5 26 0 26 0 0 -10 0 -10 -26.2 0 c-24.3 0 -26.6 0.2 -30.8 2.1 -5.5 2.5 -9.5 6.2 -12.3 11.4 -2.1 3.9 -2.2 5.3 -2.5 40.8 l-0.3 36.7 10.1 0 10 0 0 -35.5z m142 25.5 l0 -10 -18 0 -18 0 0 -25.5 0 -25.5 18 0 18 0 0 -10 0 -10 -18 0 -18 0 0 -14.5 0 -14.6 -9.7 0.3 -9.8 0.3 -0.3 48.5 c-0.3 55.7 -0.2 56 7.3 63.5 6.3 6.4 10.5 7.3 31.3 7.4 l17.2 0.1 0 -10z m208 -35.5 l0 -45.5 -10 0 -10 0 0 45.5 0 45.5 10 0 10 0 0 -45.5z m62 10 l0 -35.5 26 0 26 0 0 -10.1 0 -10 -27.7 0.3 c-30.6 0.3 -30.7 0.3 -37.3 7 -6.9 6.8 -7 7.3 -7 47.6 l0 36.2 10 0 10 0 0 -35.5z m272 25 l0 -10.5 -46.5 0 -46.5 0 0 -36.5 0 -36.5 46.5 0 46.5 0 0 -10 0 -10 -46.7 0 c-28.3 0 -48.2 0.4 -50.4 1 -5 1.4 -12.3 8.1 -14.5 13.2 -1.7 3.9 -1.9 7.8 -2.2 39.7 -0.2 23.1 0.1 37.1 0.8 40.5 1.9 9.1 8.9 16.5 17.5 18.5 2.2 0.5 24.6 0.9 49.8 1 l45.7 0.1 0 -10.5z m118.1 8.4 c4.4 -2 10.1 -7.8 12.6 -12.7 1.6 -3.3 1.8 -6.5 1.8 -30.7 0 -22.6 -0.3 -27.6 -1.6 -30.5 -2.6 -5.6 -7 -10.1 -12.4 -12.6 -4.9 -2.3 -5.8 -2.4 -32.1 -2.4 l-27.2 0 -5.3 2.8 c-6.6 3.4 -11.4 9.4 -12.8 16.2 -1.4 6.4 -1.4 44.9 -0.1 51.9 1.7 8.8 9.2 17 17.7 19 2.1 0.5 15.5 0.9 29.8 0.8 21.5 -0.2 26.6 -0.5 29.6 -1.8z m75.9 -7.9 l0 -10 -10 0 -10 0 0 10 0 10 10 0 10 0 0 -10z"/>
  <path d="M166 1131.6 c0 -2.5 7.1 -16.3 28.8 -55.7 l28.7 -52.4 91.8 -0.3 91.7 -0.2 0 3.8 c0 3.3 -9.9 28 -42.7 107 -0.4 0.9 -21.2 1.2 -99.4 1.2 l-98.9 0 0 -3.4z"/>
  <path d="M370 1132.3 c0 -1.6 9.9 -26.6 21.9 -55.8 l22 -53 95.5 -0.3 95.6 -0.2 0 2.7 c0 1.6 -5 26.8 -11.2 56.1 l-11.3 53.2 -106.2 0 -106.3 0 0 -2.7z"/>
  <path d="M588 1132.9 c0 -1.9 21.3 -103.6 22.6 -108.1 0.5 -1.7 5.7 -1.8 89.9 -1.8 l89.5 0 7.1 9.5 7.1 9.4 -0.7 46.6 -0.8 46.5 -107.3 0 -107.4 0 0 -2.1z"/>
  <path d="M809 1087.7 l0 -47.4 6.5 -8.6 6.6 -8.7 88.8 0 88.9 0 0.5 2.3 c3.8 15.4 21.7 102.5 21.7 105.6 l0 4.1 -106.5 0 -106.5 0 0 -47.3z"/>
  <path d="M1027 1129.8 c-12 -55.9 -21 -99.7 -21 -102.8 l0 -4 95.4 0 95.3 0 21.7 52.5 c14.2 34.4 21.6 53.6 21.6 56 l0 3.5 -105.9 0 -105.9 0 -1.2 -5.2z"/>
  <path d="M1246 1134 c0 -0.5 -9.7 -24.4 -21.5 -53 -11.8 -28.7 -21.5 -53.4 -21.5 -55.1 l0 -2.9 92.7 0.2 92.7 0.3 28.8 52 c22.9 41.6 28.7 52.8 28.8 55.8 l0 3.7 -100 0 c-64.3 0 -100 -0.3 -100 -1z"/>
  <path d="M809 1026.5 c0 -3.3 0.2 -3.5 3.5 -3.5 3.3 0 3.5 0.2 3.5 3.5 0 3.3 -0.2 3.5 -3.5 3.5 -3.3 0 -3.5 -0.2 -3.5 -3.5z"/>
  <path d="M360 763.9 c0 -2.2 5.1 -12.5 16.2 -33 l16.3 -29.9 71.2 0 71.3 0 0 2.7 c0 1.6 -5.5 16.1 -12.2 32.4 l-12.1 29.6 -13.5 0.7 c-7.4 0.3 -41.3 0.6 -75.4 0.6 l-61.8 0 0 -3.1z"/>
  <path d="M517 763.5 c0 -2.3 4.5 -14.4 12.2 -33.1 l12.1 -29.5 3.8 0.3 c3.7 0.3 4.2 0.9 25.8 29.7 18.5 24.6 22.1 30 22.1 32.8 l0 3.3 -38 0 -38 0 0 -3.5z"/>
  <path d="M577 737.7 c-19.3 -25.8 -22 -29.8 -22 -33 l0 -3.7 57.8 0.2 57.7 0.3 0.3 2.5 c0.1 1.4 -2.6 16 -6.1 32.5 l-6.4 30 -29.6 0.3 -29.7 0.2 -22 -29.3z"/>
  <path d="M664 763.5 c0 -3.4 11.5 -59.9 12.6 -61.6 0.3 -0.5 28.8 -0.9 64 -0.9 l63.4 0 0 33 0 33 -70 0 -70 0 0 -3.5z"/>
  <path d="M809.5 765.7 c-0.3 -0.7 -0.4 -15.4 -0.3 -32.7 l0.3 -31.5 63 -0.3 63 -0.2 6.3 30.2 c3.5 16.7 6.3 31.2 6.2 32.4 0 2 -0.7 2.1 -12.2 2.7 -6.6 0.4 -37.7 0.7 -69 0.7 -44.8 0 -57 -0.3 -57.3 -1.3z"/>
  <path d="M953.5 765.8 c-1.5 -4.8 -12.6 -60.4 -12.3 -62.2 l0.3 -2.1 57.9 -0.3 57.8 -0.2 -0.4 4.6 -0.3 4.5 1.8 -2.3 c5 -6.2 5.7 -6.8 9.1 -6.8 3.3 0 3.5 0.3 6.4 7.3 1.7 3.9 6.9 16.7 11.7 28.2 5.1 12.3 9 23 9.3 25.8 l0.5 4.7 -38.3 0 -38.2 0 0.4 -4 0.4 -4.1 -3.4 4.1 -3.4 4 -29.4 0 c-22.7 0 -29.6 -0.3 -29.9 -1.2z"/>
  <path d="M1099.9 762.3 c-12.7 -29.6 -21.9 -53.7 -21.9 -57.2 l0 -4.1 70.7 0.2 70.6 0.3 16.4 29.5 c11.8 21.3 16.3 30.3 16.3 32.7 l0 3.3 -75 0 -75.1 0 -2 -4.7z"/>
  <path d="M304 841.5 l0 -17.5 36.5 0 36.5 0 0 17.5 0 17.5 -36.5 0 -36.5 0 0 -17.5z"/>
  <path d="M1204.7 897.3 c-0.4 -0.3 -0.7 -11.8 -0.7 -25.5 l0 -24.8 26.5 0 26.5 0 -0.2 25.3 -0.3 25.2 -25.6 0.3 c-14 0.1 -25.8 -0.1 -26.2 -0.5z"/>
 </g>
 <g fill="#2b3de2">
  <path d="M150.2 1142.1 c0.2 -0.5 20.2 -37.3 44.6 -81.8 l44.3 -80.8 6.5 0 c3.5 0 6.4 0.1 6.4 0.1 0 0.1 -4.3 7.9 -9.5 17.4 -5.2 9.5 -9.5 17.4 -9.5 17.6 0 0.2 39.6 0.3 88.1 0.2 l88.1 -0.3 7.2 -17.5 7.2 -17.5 6.2 -0.3 c3.4 -0.2 6.2 -0.1 6.2 0.2 0 0.3 -3.2 8.2 -7 17.5 -3.9 9.4 -7 17.3 -7 17.6 0 0.3 41.1 0.5 91.3 0.5 l91.4 0 3.7 -17.7 c2 -9.7 3.8 -17.8 4 -18 0.2 -0.2 2.8 -0.3 5.8 -0.1 l5.4 0.3 -3.2 15 c-1.8 8.3 -3.5 16.2 -3.8 17.8 l-0.5 2.7 81 0 c71.7 0 81 -0.2 80.5 -1.5 -0.4 -1.1 0.1 -1.5 1.8 -1.5 3.3 0 10.6 9.7 10.6 14.1 0 3 -0.1 3.1 -1.8 1.6 -1.7 -1.6 -9.2 -1.7 -88 -1.7 l-86.2 0 -0.5 2.3 c-0.3 1.2 -5.4 25 -11.3 53 l-10.8 50.7 104.1 0 104.2 0 0.7 -43.6 c0.6 -33.1 0.5 -43.9 -0.5 -45 -0.9 -1.2 -0.6 -1.4 1.9 -1.4 1.7 0 3.3 0.6 3.6 1.3 0.3 0.8 0.8 0.7 1.6 -0.5 0.6 -1 2.1 -1.8 3.3 -1.8 l2.2 0 -0.3 45.5 -0.3 45.5 103.6 0 c76.2 0 103.5 -0.3 103.5 -1.1 0 -1 -20.2 -96.7 -21.7 -102.6 l-0.5 -2.3 -85.7 0 c-65.3 0 -86 0.3 -86.9 1.2 -0.9 0.9 -1.2 0.5 -1.2 -2 0 -4.4 6.5 -13.2 9.7 -13.2 1.6 0 2.1 0.4 1.7 1.5 -0.5 1.3 8.7 1.5 79.5 1.5 67.8 0 80.1 -0.2 80.1 -1.4 0 -0.8 -1.6 -8.7 -3.5 -17.7 -1.9 -9 -3.5 -16.5 -3.5 -16.6 0 -0.2 2.6 -0.3 5.9 -0.3 5.8 0 5.9 0 6.5 3.3 0.3 1.7 2 9.8 3.7 18 l3.2 14.7 91 0 90.9 0 -0.5 -2.2 c-0.2 -1.3 -3.4 -9.4 -7 -18 l-6.6 -15.8 6.3 0 6.4 0 7.3 18 7.3 18 88.3 0 c48.6 0 88.3 -0.4 88.3 -0.8 0 -0.5 -4 -8.2 -9 -17.1 -4.9 -9 -9 -16.7 -9 -17.3 0 -0.5 2.8 -0.8 6.2 -0.6 l6.1 0.3 28 50.5 c15.3 27.8 35.6 64.6 45.2 81.8 l17.3 31.2 -656.5 0 c-400.7 0 -656.3 -0.4 -656.1 -0.9z m212.6 -14.8 c5.3 -12.5 40.5 -98 40.9 -99.6 0.5 -1.6 -4 -1.7 -88.3 -1.5 l-88.9 0.3 -28.7 52.4 c-15.9 28.8 -28.8 52.5 -28.8 52.7 0 0.2 43.1 0.4 95.9 0.4 l95.9 0 2 -4.7z m227.5 -46.5 c6 -28.2 11.1 -52.1 11.3 -53.1 0.5 -1.6 -4.2 -1.7 -92.1 -1.5 l-92.7 0.3 -10.3 25 c-5.6 13.8 -15.5 37.5 -21.8 52.8 l-11.5 27.7 103.2 0 103.1 0 10.8 -51.2z m646.3 49.5 c-0.4 -1 -10.2 -24.9 -21.8 -53 l-21.1 -51.3 -92.3 0 c-58.8 0 -92.4 0.4 -92.4 1 0 0.7 14.6 70 21 99.8 l1.2 5.2 103 0 c97.7 0 103 -0.1 102.4 -1.7z m206.4 1.1 c0 -0.9 -56.2 -102.8 -57.5 -104.2 -0.8 -0.9 -19.7 -1.2 -90.2 -1 l-89.1 0.3 20.9 50.5 c11.5 27.8 21.2 51.5 21.5 52.8 l0.6 2.2 96.9 0 c53.3 0 96.9 -0.3 96.9 -0.6z"/>
  <path d="M800.6 1035.7 c-1.5 -1.9 -2.6 -4.1 -2.6 -5 0 -1 -0.6 -1.7 -1.3 -1.7 -2.3 0 -8.7 -9.7 -8.7 -13.2 0 -2.5 0.3 -2.9 1.2 -2 0.7 0.7 3.3 1.2 6 1.2 l4.8 0 0.2 -17.7 0.3 -17.8 5.8 -0.3 5.7 -0.3 0 18.1 0 18 4.7 0 c2.9 0 5.3 -0.6 6.5 -1.7 1.7 -1.5 1.8 -1.4 1.8 1.6 0 2.2 -1.3 4.9 -4.1 8.6 -2.3 3 -4.5 5.5 -5 5.5 -0.5 0 -0.9 0.5 -0.9 1.1 0 0.6 -1.2 2.8 -2.7 5 -3.8 5.2 -8 5.4 -11.7 0.6z"/>
  <path d="M281.2 869.3 c0.3 -57.3 0 -54.3 7 -61.3 6.9 -7 6.8 -7 51.8 -7 23.7 0 42 0.4 44.1 1 4.7 1.3 11.4 7.2 14.2 12.4 2.2 4.1 2.2 4.6 2.5 55.4 l0.3 51.2 -13.6 0 -13.5 0 0 -19.5 0 -19.5 -33.5 0 -33.5 0 0 19.5 0 19.5 -13 0 -13.1 0 0.3 -51.7z m92.8 -27.8 l0 -14.5 -33.5 0 -33.5 0 0 14.5 0 14.5 33.5 0 33.5 0 0 -14.5z"/>
  <path d="M437.2 881.3 c0.3 -38.6 0.4 -39.9 2.5 -43.8 2.8 -5.2 6.8 -8.9 12.3 -11.4 4.2 -1.9 6.5 -2.1 33.8 -2.1 l29.2 0 0 13 0 13 -26 0 -26 0 0 35.5 0 35.5 -13 0 -13.1 0 0.3 -39.7z"/>
  <path d="M559.7 919.4 c-3.2 -1 -6.4 -3 -9.2 -5.9 -7.6 -7.5 -7.6 -7.5 -7.3 -66.5 l0.3 -51.5 12.8 -0.3 12.7 -0.3 0 14.6 0 14.5 18 0 18 0 0 13 0 13 -18 0 -18 0 0 22.5 0 22.5 18 0 18 0 0 13 0 13 -20.2 -0.1 c-14.9 0 -21.6 -0.4 -25.1 -1.5z"/>
  <path d="M637 873.3 c-0.1 -40.4 -0.3 -48.1 -1.5 -49.7 -1 -1.3 -1.5 -4.4 -1.5 -9.5 0 -6.8 0.1 -7.3 1.5 -5.5 1.3 1.8 1.4 1.5 1.5 -2.8 l0 -4.8 13.5 0 13.5 0 0 23 0 23 11.5 0 11.5 0 19.2 -23 19.1 -23 13.9 0 13.8 0 0 4.8 c0 4.6 -0.2 5 -17.6 25.7 -9.7 11.6 -19.2 22.9 -21.1 25.2 l-3.4 4.2 21 25 21.1 25 0 5 0 5.1 -13.7 -0.1 -13.8 0 -19.5 -23.5 c-10.7 -12.9 -19.8 -23.4 -20.3 -23.4 -1.1 0 -0.6 0.7 11 16.3 5.7 7.5 10.2 13.7 9.9 13.7 -0.2 0 -5.5 -6.1 -11.7 -13.5 -11.2 -13.3 -11.4 -13.5 -15.5 -13.5 -2.5 0 -4.7 -0.6 -5.4 -1.5 -0.8 -0.9 -2.9 -1.5 -5.6 -1.5 l-4.4 0 -0.2 23.3 -0.3 23.2 -13.2 0.3 -13.3 0.3 0 -47.8z"/>
  <path d="M787 872.5 l0 -48.5 13 0 13 0 0 48.5 0 48.5 -13 0 -13 0 0 -48.5z"/>
  <path d="M849 881.8 c0 -43.7 0 -43.7 7 -50.6 6.7 -6.7 6.4 -6.7 40.3 -7 l30.7 -0.3 0 13 0 13.1 -26 0 -26 0 0 35.5 0 35.5 -13 0 -13 0 0 -39.2z"/>
  <path d="M1045.5 919.9 c-8.6 -2 -15.6 -9.4 -17.5 -18.5 -0.7 -3.4 -1 -18.3 -0.8 -43.5 0.3 -34.9 0.5 -38.8 2.2 -42.7 2.2 -5.2 9.5 -11.8 14.5 -13.2 2.2 -0.6 23.1 -1 53.4 -1 l49.7 0 0 13 0 13 -46.5 0 -46.5 0 0 33.5 0 33.5 46.5 0 46.5 0 0 13.5 0 13.5 -48.7 -0.1 c-26.9 -0.1 -50.6 -0.5 -52.8 -1z"/>
  <path d="M1199.7 919.9 c-8.5 -2 -16 -10.2 -17.7 -19 -1.4 -7 -1.3 -51.5 0.1 -57.9 1.4 -6.8 6.2 -12.8 12.8 -16.2 l5.3 -2.8 30.2 0 c29.5 0 30.2 0.1 35.1 2.4 5.4 2.5 9.8 7 12.4 12.6 1.4 3 1.6 8.1 1.6 33.5 0 33.5 0 33.6 -7.2 41 -6.6 6.8 -7.5 7 -39.8 7.2 -15.9 0.1 -30.7 -0.3 -32.8 -0.8z m54.1 -47.6 l0.2 -22.3 -23.5 0 -23.5 0 0 21.8 c0 12 0.3 22.2 0.7 22.6 0.4 0.3 10.8 0.5 23.2 0.4 l22.6 -0.3 0.3 -22.2z"/>
  <path d="M1315 908 l0 -13 13 0 13 0 0 13 0 13 -13 0 -13 0 0 -13z"/>
  <path d="M787.4 817.7 c-0.2 -0.7 -0.3 -6.7 -0.2 -13.3 l0.3 -11.9 6.8 -0.3 6.7 -0.3 0 -8.5 0 -8.4 -68.2 0.2 -68.3 0.3 -2 9.3 -1.9 9.2 -5.8 0 c-3.2 0 -5.8 -0.3 -5.8 -0.7 0 -0.7 0.9 -4.8 3.5 -16 l0.5 -2.3 -21.1 0 c-18.4 0 -21 0.2 -20.5 1.5 1.1 2.9 -3.8 1.6 -6.6 -1.7 l-2.7 -3.3 -0.1 3.4 c0 3.2 -0.1 3.3 -1.8 1.8 -1.7 -1.5 -6.1 -1.7 -43.4 -1.7 l-41.6 0 -3.8 9.5 -3.9 9.5 -6.2 0 c-3.5 0 -6.3 -0.2 -6.3 -0.4 0 -0.3 1.6 -4.2 3.5 -8.7 1.9 -4.6 3.5 -8.7 3.5 -9.1 0 -0.4 -32.7 -0.8 -72.7 -0.8 l-72.8 0 -5 9.5 -5 9.5 -6.4 0 c-5.5 0 -6.2 -0.2 -5.7 -1.7 0.4 -0.9 12.8 -23.8 27.6 -50.8 14.9 -27 27 -49.7 27 -50.3 0 -0.9 17.8 -1.2 75.8 -1.2 l75.7 0.1 3.8 5.1 c2.6 3.7 3.7 6.2 3.7 8.7 0 3.3 -0.1 3.4 -1.4 1.5 -0.8 -1 -1.7 -1.6 -2 -1.3 -0.6 0.6 -24.6 58.5 -24.6 59.4 0 0.3 15.7 0.5 35 0.5 30.6 0 34.9 -0.2 34.4 -1.5 -0.5 -1.1 0.1 -1.5 1.8 -1.5 1.8 0 3.4 1.3 5.7 4.5 1.7 2.4 3.7 4.7 4.4 5.1 0.7 0.4 0.4 -0.2 -0.5 -1.3 -1 -1.1 -1.8 -3.5 -1.8 -5.3 0 -3.2 0.1 -3.2 1.8 -1.6 1.7 1.5 4.8 1.6 28.2 1.4 l26.3 -0.3 6.2 -29.3 c3.4 -16.1 5.9 -29.4 5.7 -29.7 -0.3 -0.3 -25 -0.5 -55 -0.5 -48 0 -54.3 0.2 -53.8 1.5 0.4 1.1 -0.1 1.5 -1.9 1.5 -3.4 0 -10.5 -9.4 -10.5 -13.8 l0 -3.2 260 0 260 0 0 3.3 c0 4.8 -6.6 13.6 -10.2 13.7 -2 0 -2.6 -0.4 -2.2 -1.5 0.5 -1.3 -5.8 -1.5 -53.8 -1.5 -30 0 -54.7 0.2 -55 0.5 -0.2 0.3 2.3 13.6 5.7 29.7 l6.2 29.3 26.3 0.3 c23.4 0.2 26.5 0.1 28.2 -1.4 1.7 -1.6 1.8 -1.6 1.8 1.6 0 4.7 -7.1 14 -10.7 14 -2.1 0 -2.4 -0.2 -1.3 -1.5 1.1 -1.3 -1.3 -1.5 -20.4 -1.5 -20.2 0 -21.7 0.1 -21.2 1.8 0.9 2.9 3.6 15.3 3.6 16.3 0 0.6 -2.4 0.9 -5.7 0.7 l-5.8 -0.3 -2 -9.2 -1.9 -9.3 -67.9 0 -67.8 0 0.7 22 0.7 22 -12.7 0 c-9.5 0 -12.8 -0.3 -13.2 -1.3z m-293.2 -54.3 l13.5 -0.7 6.6 -16.1 c3.6 -8.9 9 -22.1 12 -29.3 l5.5 -13.3 -68.2 0 -68.2 0 -10.9 20.2 c-6.1 11.1 -13.4 24.6 -16.3 30 l-5.3 9.8 58.9 0 c32.4 0 65 -0.3 72.4 -0.6z m306.8 -29.4 l0 -30 -60.4 0 c-33.5 0 -60.7 0.4 -61 0.9 -0.5 0.7 -12.6 57.3 -12.6 58.6 0 0.3 30.2 0.5 67 0.5 l67 0 0 -30z m143.3 29 c0.3 -0.3 -2.3 -13.7 -5.7 -29.8 l-6.1 -29.2 -60 0.2 -60 0.3 -0.3 28.5 c-0.1 15.7 0 29.1 0.3 29.8 0.4 1.2 11.5 1.3 65.9 1 36 -0.1 65.7 -0.5 65.9 -0.8z"/>
  <path d="M1104.1 791.8 c-0.5 -1.3 -2.2 -5.4 -3.8 -9.3 l-3 -7 -41.8 -0.3 c-30 -0.1 -42.2 0.1 -43.1 0.9 -1.1 0.9 -1.4 0.6 -1.4 -1.8 0 -4.1 6.8 -13.2 9.9 -13.3 1.6 0 2.2 0.4 1.7 1.5 -0.5 1.3 3.8 1.5 34.5 1.5 l35 0 -0.7 -2.2 c-0.9 -3 -22.1 -54.5 -23.2 -56.5 -0.8 -1.3 -1.1 -1.3 -2.5 0.2 -1.6 1.5 -1.7 1.4 -1.7 -1.6 0 -2.2 1.3 -4.9 4 -8.6 l4.1 -5.3 75.4 0 c62.7 0 75.5 0.2 75.5 1.3 0 1.1 43.1 80.2 53.7 98.5 l2.4 4.3 -6.7 -0.3 -6.7 -0.3 -5.1 -9.2 -5.1 -9.3 -72.7 0 c-40.1 0 -72.8 0.4 -72.8 0.8 0 0.4 1.6 4.5 3.5 9.1 1.9 4.5 3.5 8.4 3.5 8.7 0 0.2 -2.7 0.4 -6 0.4 -5.3 0 -6.2 -0.3 -6.9 -2.2z m144.9 -28.1 c0 -0.1 -7.4 -13.5 -16.3 -29.7 l-16.4 -29.5 -67.6 -0.3 c-47.8 -0.1 -67.7 0.1 -67.7 0.9 0 0.9 15.6 39.4 21.9 54.2 l2 4.7 72.1 0 c39.6 0 72 -0.1 72 -0.3z"/>
  <path d="M938 629.4 c-10.9 -2.4 -22.9 -6.6 -33.5 -11.9 l-10 -5 -0.3 -4 c-0.3 -3.9 -0.2 -4.1 7.7 -9.8 14.6 -10.5 34.6 -31.5 42.9 -44.9 l2.4 -3.8 27.8 0 c15.3 0 28.5 0.3 29.4 0.6 1.1 0.4 1.6 1.9 1.6 4.2 0 4.1 -10.9 24.9 -18.6 35.6 -2.4 3.3 -5.2 7.2 -6.1 8.6 -1 1.3 -3.7 4.4 -6 6.8 -2.3 2.4 -4.3 4.8 -4.5 5.2 -0.2 0.5 -4.5 5.1 -9.6 10.4 -10.5 10.8 -10.4 10.8 -23.2 8z"/>
  <path d="M953 544.2 c0 -1.5 2.5 -8.3 5.6 -15.1 7 -15.4 11.6 -29.6 14.6 -44.3 3.1 -15.2 3.3 -45 0.4 -60.3 -2.3 -12.4 -6.7 -27.4 -11.2 -38.3 -1.9 -4.5 -3.4 -9.8 -3.4 -11.7 0 -3.3 0.1 -3.4 2.5 -2.5 1.7 0.6 3.7 0.5 6.5 -0.5 6.6 -2.3 18.7 -4.3 31.1 -5 l11.6 -0.8 3.2 8.9 c19 52.3 18.6 114.5 -1.1 167.2 l-1.9 5.2 -29 0 -28.9 0 0 -2.8z"/>
 </g>
 <g fill="#7989e8">
  <path d="M538.6 694.8 c-0.8 -1.7 -5.3 -1.8 -75.2 -1.8 l-74.4 0 0 -180 0 -180 12.3 0 c31.7 0 57.5 10.4 85.7 34.5 10.8 9.2 21.3 21.1 37.8 42.9 24.7 32.7 35 43.7 51.1 54.4 8.9 6 23.9 13 29.7 13.9 2.8 0.5 3.4 0.2 3.4 -1.2 0 -1.2 0.5 -1.5 1.8 -1 4.5 1.7 21.2 4.5 32.8 5.4 7.1 0.6 30.9 1.3 52.9 1.6 22 0.3 44.5 1 50 1.5 19 2 39 7.6 53.2 14.9 10.4 5.2 26.1 19.1 36.9 32.4 5.1 6.3 6.4 8.6 6.4 11.3 l0 3.4 -205 0 -205 0 53.6 71.4 c49 65.4 53.5 71.7 53.2 74.8 -0.3 2.6 -0.6 2.9 -1.2 1.6z"/>
  <path d="M494 627.2 c-46.5 -62.1 -51.5 -69.1 -51.8 -72.9 l-0.4 -4.3 204.1 0 204 0 9.9 13.3 c13.9 18.5 22.4 28 31.8 35.6 7.1 5.8 7.9 6.7 6.5 7.8 -1.5 1.2 -1.4 1.4 0.4 2.9 6.6 5.1 29.2 14 43.5 16.9 7.3 1.5 7.5 1.5 9 -0.5 1.5 -2 1.8 -2 11.5 -0.6 5.5 0.8 17.9 2.4 27.5 3.5 46 5.4 68.1 12.1 86.3 26.1 4.6 3.5 7.6 5 9.7 5 2.8 0 3 0.3 3 3.5 0 2.4 -0.5 3.5 -1.5 3.5 -0.8 0 -1.5 0.7 -1.5 1.5 0 0.8 -4.4 7.4 -9.7 14.5 -7.7 10.3 -10.3 13 -12.1 13 -1.7 0 -2.3 -0.4 -1.8 -1.5 0.5 -1.3 -28.4 -1.5 -256.6 -1.5 -228.4 0 -256.9 0.2 -255.8 1.5 1.1 1.3 0.8 1.5 -1.6 1.5 -2.6 -0.1 -7.4 -6.1 -54.4 -68.8z"/>
  <path d="M1072 693.1 c0 -2.3 1.6 -5.4 6.3 -11.6 5.5 -7.4 6.6 -8.4 9.4 -8.4 1.7 -0.1 3.4 0.3 3.7 0.8 0.4 0.5 0.9 3.8 1.3 7.3 0.3 3.4 1.1 6.6 1.7 7 0.6 0.4 29.6 0.8 64.4 0.8 62.5 0 63.2 0 63.2 2 0 2 -0.7 2 -73.2 2 -66.7 0 -73.3 0.1 -75 1.7 -1.7 1.5 -1.8 1.4 -1.8 -1.6z"/>
 </g>
 <g fill="#ffc32c">
  <path d="M796.7 1030.3 c-0.4 -0.3 -0.7 -2.2 -0.7 -4.2 0.1 -2.9 0.2 -3.3 1.1 -1.8 0.5 0.9 1.6 1.7 2.3 1.7 0.8 0 1.6 1.1 1.8 2.5 0.4 2.1 0.1 2.5 -1.7 2.5 -1.2 0 -2.5 -0.3 -2.8 -0.7z"/>
  <path d="M888.3 601.7 c-9.2 -7.5 -17.8 -17.2 -31.5 -35.4 -5.4 -7.3 -10.3 -13.3 -10.8 -13.3 -0.6 0 -1 -0.7 -1 -1.5 0 -1.3 6.7 -1.5 54 -1.5 47.3 0 54 0.2 54 1.5 0 0.8 -0.6 1.5 -1.4 1.5 -0.8 0 -2.5 1.7 -3.8 3.8 -3.9 6.3 -17.3 22.3 -24.5 29.3 -7.3 7.1 -15.2 13.7 -22.6 18.8 l-4.6 3.1 -7.8 -6.3z"/>
  <path d="M836.7 546.3 c-1.3 -1.2 -0.7 -2.2 1.4 -2.5 1.9 -0.3 1.4 -1.2 -4.3 -8.3 -11 -13.5 -26.7 -27.3 -37.1 -32.6 -14.2 -7.3 -34.2 -12.9 -53.2 -14.9 -5.5 -0.5 -28 -1.2 -50 -1.5 -44.3 -0.6 -61.1 -1.6 -75.2 -4.5 -5.3 -1.1 -9.7 -2 -10 -2 -0.2 0 -0.2 -0.4 0.1 -0.9 0.4 -0.5 0.1 -6.7 -0.5 -13.7 -2.6 -30.1 4.3 -65.4 18.2 -94.1 14.7 -30.1 40.4 -58.7 68.5 -76.1 67.8 -42.1 154.3 -36.5 215.9 13.8 16.9 13.8 34.8 35.3 44.7 53.7 3 5.6 5.5 9 7 9.6 1.6 0.6 1.9 1 1 1.6 -1 0.6 -0.5 2.7 2.2 9.2 4.5 11 8.9 25.9 11.2 38.4 2.9 15.6 2.7 50.9 -0.4 66.3 -3 14.6 -7.6 28.9 -14.5 44.1 -5 10.9 -5.3 12.1 -3.5 12.1 1.1 0 1.8 0.5 1.6 1.3 -0.4 0.9 -13.7 1.3 -61.5 1.5 -33.5 0.1 -61.3 -0.1 -61.6 -0.5z"/>
 </g>
 <g fill="#5068cc">
  <path d="M1090.9 691 c-0.8 -0.8 -1.5 -3.3 -1.6 -5.5 -0.1 -3.4 -0.7 -7.8 -1.2 -9.4 0 -0.2 -1.5 1.5 -3.1 3.7 -1.7 2.3 -3.2 4.2 -3.5 4.2 -0.3 0 -0.5 -1.6 -0.5 -3.5 0 -2.8 0.4 -3.5 2 -3.5 1.4 0 2 -0.7 2 -2.2 0 -1.4 18 -26.2 47 -64.8 l46.9 -62.5 -87 -0.3 c-76.3 -0.2 -86.9 -0.4 -86.9 -1.7 0 -0.8 0.6 -1.5 1.4 -1.5 1.5 0 5 -7.6 4.1 -9.1 -0.4 -0.5 -0.2 -0.9 0.3 -0.9 0.9 0 3.7 -8.1 3.7 -10.5 0 -0.5 0.3 -1.3 0.8 -1.6 0.4 -0.3 0.9 -2 1 -3.7 0.1 -1.8 0.6 -3.2 1.1 -3.2 0.4 0 0.6 -0.9 0.3 -2 -0.3 -1 -0.1 -2 0.4 -2.2 0.5 -0.2 1 -2.1 1.3 -4.3 0.2 -2.2 0.7 -4.8 1.1 -5.8 0.4 -1 0.5 -2.1 0.1 -2.4 -0.3 -0.3 -0.1 -1.2 0.5 -2 0.6 -0.7 0.9 -2.2 0.6 -3.3 -0.3 -1.1 -0.1 -2.3 0.4 -2.6 0.5 -0.3 1 -2 1 -3.7 0 -1.8 0.3 -6.1 0.7 -9.7 1.8 -17.7 0.4 -45.5 -3.2 -63 -0.2 -1.4 -0.7 -3.9 -1 -5.7 -0.6 -3.7 -2.4 -11.1 -3.3 -13.3 -0.3 -0.8 -0.8 -2.5 -1 -3.8 -0.2 -1.2 -0.9 -3.5 -1.5 -5 -0.6 -1.5 -1.2 -3 -1.3 -3.4 -0.2 -0.5 -0.3 -0.9 -0.4 -1 -0.2 -0.2 -0.4 -1.3 -0.7 -2.6 -0.2 -1.3 -0.9 -3.3 -1.6 -4.5 -0.7 -1.2 -1.3 -2.7 -1.4 -3.3 -0.1 -0.6 -0.5 -2.1 -0.9 -3.3 -0.5 -1.6 -0.2 -2.1 1.2 -2.1 5.5 0 20.8 -2.3 27.3 -4.1 15.8 -4.3 25.2 -12.3 44.5 -37.9 14.7 -19.6 19 -24.1 28.7 -30.6 22 -14.7 60.5 -25 101.6 -27.1 l12.2 -0.6 0 213.4 0 213.4 -65.4 0 c-56.4 0 -65.5 -0.2 -66.7 -1.5z"/>
  <path d="M1082.6 667.6 c0.7 -1.7 -8.4 -9.7 -16.7 -14.8 -5.2 -3.1 -19.1 -9.5 -22.4 -10.3 -0.5 -0.1 -1.7 -0.5 -2.5 -0.8 -0.8 -0.4 -2.8 -0.9 -4.5 -1.2 -3.5 -0.7 -4.3 -0.9 -7 -1.8 -1.1 -0.3 -3.8 -0.9 -6 -1.2 -2.2 -0.4 -4.9 -0.8 -6 -1 -1.1 -0.2 -3.8 -0.6 -6 -1 -2.2 -0.4 -5.1 -0.9 -6.5 -1.1 -1.4 -0.3 -4.7 -0.7 -7.5 -1 -6.8 -0.7 -11.2 -1.2 -16 -1.8 -2.2 -0.3 -6.2 -0.8 -9 -1.1 -2.7 -0.3 -6.1 -0.8 -7.5 -1 -5.3 -0.8 -11.6 -1.7 -13.2 -1.8 -1 -0.1 -1.8 -0.3 -1.8 -0.5 0 -0.3 4.1 -4.6 9.1 -9.7 5 -5.1 9.1 -9.7 9.2 -10.2 0.1 -0.4 1.4 -1.9 2.9 -3.1 1.6 -1.3 2.6 -2.8 2.2 -3.3 -0.3 -0.5 0.1 -0.9 0.9 -0.9 1.4 0 3.2 -2.7 2.9 -4.2 -0.1 -0.5 0.5 -0.8 1.3 -0.8 1.3 0 1.6 -0.5 1.5 -2.6 -0.1 -0.3 0.8 -1.3 1.9 -2.2 2.9 -2.6 9.2 -12.3 8.5 -13.3 -0.3 -0.5 -0.1 -0.9 0.5 -0.9 1.3 0 4.2 -5.5 3.4 -6.4 -0.4 -0.3 -0.1 -0.6 0.6 -0.6 0.7 0 0.9 -0.4 0.6 -1 -0.3 -0.5 -0.1 -1 0.4 -1 1.2 0 7.5 -11.9 6.8 -12.7 -0.5 -0.5 -3.2 -1.1 -5.4 -1.2 -0.7 -0.1 -1.3 -0.8 -1.3 -1.6 0 -1.3 10.4 -1.5 87.6 -1.5 l87.6 0 -0.4 3.8 c-0.3 3.1 -7.3 12.9 -42.2 59.5 -34.3 45.6 -42.3 55.7 -44.2 55.7 -1.6 0 -2.2 -0.4 -1.8 -1.4z"/>
 </g>
 <g fill="#ed0653">
  <path d="M804.3 1048.7 c-1.1 -1.2 -31.1 -41 -66.7 -88.5 l-64.7 -86.3 6 0.3 6 0.3 60.6 80.8 60.6 80.8 123.9 -165.3 c68.2 -90.9 124.3 -165.8 124.8 -166.3 1.7 -2.1 111.8 -149.1 112.6 -150.2 0.6 -1 -72.1 -1.3 -360.8 -1.3 -198.9 0 -361.6 0.4 -361.6 0.8 0 0.5 43.2 58.4 96 128.8 l96 127.9 0 7.5 c0 4.6 -0.4 7 -0.9 6.5 -0.6 -0.6 -48.1 -63.8 -105.6 -140.5 l-104.6 -139.5 379.7 -0.3 c208.9 -0.1 379.9 0 380.1 0.2 0.4 0.4 -118.1 159.2 -119.8 160.6 -0.3 0.3 -58.8 78.1 -129.9 173 -71.1 94.9 -129.4 172.6 -129.5 172.7 -0.1 0.2 -1.1 -0.7 -2.2 -2z"/>
 </g>
</svg>